<?xml version="1.0" encoding="UTF-8"?>
<svg xmlns="http://www.w3.org/2000/svg" viewBox="0 0 256 256" width="256" height="256">
    <defs>
        <linearGradient id="ns-grad" x1="0" y1="0" x2="1" y2="1">
            <stop offset="0%" stop-color="#d4a8ff"/>
            <stop offset="100%" stop-color="#d946ef"/>
        </linearGradient>
        <linearGradient id="ring-grad" x1="0" y1="0.5" x2="1" y2="0.5">
            <stop offset="0%" stop-color="#d4a8ff" stop-opacity="0.3"/>
            <stop offset="50%" stop-color="#d946ef"/>
            <stop offset="100%" stop-color="#d4a8ff" stop-opacity="0.3"/>
        </linearGradient>
    </defs>

    <g transform="rotate(-24 128 116)">
        <ellipse cx="128" cy="116" rx="116" ry="50"
                 fill="none" stroke="url(#ring-grad)" stroke-width="2.5"/>
        <circle cx="22" cy="126" r="4.5" fill="#d946ef"/>
    </g>

    <g fill="url(#ns-grad)">
        <rect x="46" y="56" width="20" height="120" rx="2"/>
        <rect x="102" y="56" width="20" height="120" rx="2"/>
        <polygon points="55,56 77,56 113,176 91,176"/>
    </g>

    <path d="M 200 86
             C 200 68 184 56 164 56
             L 154 56
             C 138 56 134 70 134 86
             C 134 102 148 116 166 116
             L 178 116
             C 196 116 210 130 210 148
             C 210 166 194 176 174 176
             L 164 176
             C 146 176 134 170 134 156"
          fill="none"
          stroke="url(#ns-grad)"
          stroke-width="20"
          stroke-linecap="round"
          stroke-linejoin="round"/>

    <path d="M 214 38 L 217 49 L 228 52 L 217 55 L 214 66 L 211 55 L 200 52 L 211 49 Z"
          fill="#ffffff" opacity="0.95"/>

    <text x="128" y="220"
          font-family="'Orbitron','Arial Black',sans-serif"
          font-weight="700"
          font-size="13"
          letter-spacing="5"
          fill="url(#ns-grad)"
          text-anchor="middle">NEBULA SCOUTING</text>
    <line x1="14" y1="216" x2="44" y2="216" stroke="url(#ring-grad)" stroke-width="1.2"/>
    <line x1="212" y1="216" x2="242" y2="216" stroke="url(#ring-grad)" stroke-width="1.2"/>

    <circle cx="42" cy="64" r="1.5" fill="#ffffff" opacity="0.7"/>
    <circle cx="222" cy="180" r="1.2" fill="#ffffff" opacity="0.55"/>
    <circle cx="32" cy="190" r="1" fill="#ffffff" opacity="0.5"/>
</svg>
